<svg xmlns="http://www.w3.org/2000/svg" viewBox="0 0 48 48" width="256" height="256"><path fill="#1877F2" d="M24 0C10.746 0 0 10.746 0 24c0 11.947 8.736 21.85 20.125 23.72V30.938h-6.063V24h6.063v-5.29c0-5.98 3.563-9.28 9.023-9.28 2.616 0 5.352.468 5.352.468v5.89h-3.016c-2.972 0-3.9 1.846-3.9 3.738V24h6.641l-1.063 6.938h-5.578V47.72C39.264 45.85 48 35.947 48 24 48 10.746 37.254 0 24 0z"/><path fill="#FFF" d="M33.938 30.938L35 24h-6.641v-4.474c0-1.892.928-3.738 3.9-3.738h3.016v-5.89s-2.736-.468-5.352-.468c-5.46 0-9.023 3.3-9.023 9.28V24h-6.063v6.938h6.063V47.72a24.181 24.181 0 003.875.28c1.33 0 2.633-.098 3.906-.28V30.938h5.578z"/></svg>