<svg width="256" height="262" viewBox="0 0 256 262" xmlns="http://www.w3.org/2000/svg"><path fill="#4285F4" d="M255.68 133.45c0-10.61-.86-18.35-2.72-26.36H130.56v47.79h71.84c-1.45 11.89-9.29 29.8-26.72 41.84l-.24 1.62 38.8 30 2.69.27c24.64-22.76 38.76-56.28 38.76-95.16"/><path fill="#34A853" d="M130.56 261.1c35.18 0 64.8-11.56 86.4-31.54l-41.16-31.84c-11.05 7.67-25.89 13.03-45.24 13.03-34.58 0-63.94-22.76-74.38-54.27l-1.54.13-40.26 31.18-.53 1.49C34.67 232.9 79.86 261.1 130.56 261.1"/><path fill="#FBBC05" d="M56.18 156.48c-2.8-8.01-4.42-16.61-4.42-25.48s1.62-17.47 4.28-25.48l-.07-1.71-40.73-31.74-1.33.63C4.86 88.42 0 109.18 0 131s4.86 42.58 13.91 58.3l42.27-32.82"/><path fill="#EA4335" d="M130.56 49.48c24.49 0 41 10.62 50.42 19.49l36.82-35.94C195.2 11.09 165.74 0 130.56 0 79.86 0 34.67 28.2 13.91 72.7l42.2 32.82c10.5-31.51 39.86-56.04 74.45-56.04"/></svg>