<svg xmlns="http://www.w3.org/2000/svg" viewBox="0 0 24 24" width="256" height="256" fill="currentColor"><path d="M10.87 2.02c.36-.89 1.67-1.03 2.2-.22.22.32.3.75.37 1.14.43 2.5.86 5 .98 7.53.05 1.12-.93 2.11-2.05 2.03-1.1-.04-1.98-.98-2.02-2.07-.13-2.87.2-5.74.52-8.56zM4.1 7.23c.7-.79 2.05-.4 2.27.63.09.42.02.86-.05 1.28-.39 2.21-.78 4.42-1.35 6.6-.28 1.07-1.58 1.6-2.54 1.03-.95-.5-1.21-1.83-.5-2.65 1.56-2 3.29-3.84 5.18-5.52zM2.24 18.34c.23-1.03 1.6-1.4 2.42-.69.32.27.52.66.73 1.02.98 1.8 1.95 3.6 3.07 5.33.62.96-.1 2.35-1.23 2.5-1.07.22-2.11-.74-1.9-1.82.3-2.22.9-4.38.91-6.55zM15.6 13.58c.6-.93 2.03-.84 2.53.16.18.34.21.74.26 1.12.28 1.92.57 3.85.64 5.79.03 1.1-1.02 1.98-2.09 1.83-1.02-.14-1.73-1.2-1.58-2.2.28-2.24.97-4.41 2.24-6.7zM21.58 8.38c.96.3 1.38 1.61.67 2.41-.27.31-.66.51-1.01.7-1.87 1.03-3.75 2.05-5.7 2.9-1.03.44-2.3-.16-2.6-1.23-.33-1.01.27-2.19 1.29-2.49 2.08-.73 4.23-1.24 6.35-1.72z"/></svg>